:FULLY-SPECIFIED
:FORCE-ALL-JOINTS-BE-3DOF
:DEGREES
2141
root -2.53238 15.2535 -0.134698 904.651 9.10997 187.841
lfemur -56.5974 19.1524 -24.3169
ltibia 43.6294 0 0
lfoot 9.02403 19.787 0
ltoes 8.99578 0 0
rfemur 5.98883 -2.30107 27.4161
rtibia 49.2684 0 0
rfoot -17.6358 8.55854 0
rtoes -30.1315 0 0
lowerback 8.6695 1.18919 1.6225
upperback -2.13608 2.1159 3.42994
thorax -7.14533 1.11629 2.41076
lowerneck -5.7171 -0.609819 -5.05738
upperneck 6.84257 -0.576817 3.21445
head 3.27335 -0.277756 1.93242
lclavicle 1.09283e-14 -1.23019e-14 0
lhumerus 52.2323 -4.14207 97.8573
lradius 16.3447 0 0
lwrist -51.4037 0 0
lhand -34.5667 399.551 0
lfingers 7.12502 0 0
lthumb -7.72633 -290.617 0
rclavicle 1.09283e-14 -1.23019e-14 0
rhumerus -57.4583 19.8249 -98.1535
rradius 107.281 0 0
rwrist -88.1452 0 0
rhand -15.3188 -393.451 0
rfingers 7.12502 0 0
rthumb 10.8568 296.857 0
2142
root -2.5296 15.2574 -0.38471 904.316 8.6969 187.034
lfemur -55.9697 18.4215 -24.7643
ltibia 45.0482 0 0
lfoot 7.6969 19.9466 0
ltoes 7.35413 0 0
rfemur 4.03788 -2.12451 26.5418
rtibia 52.8912 0 0
rfoot -15.5048 8.35886 0
rtoes -29.185 0 0
lowerback 9.14972 1.06755 0.932328
upperback -1.977 1.84218 3.25929
thorax -7.23872 1.00002 2.66305
lowerneck -5.68116 -0.522625 -4.92799
upperneck 6.63676 -0.465703 3.09896
head 3.18933 -0.223409 1.87261
lclavicle 9.02613e-15 -1.15107e-14 0
lhumerus 51.709 -4.15747 97.2931
lradius 17.4437 0 0
lwrist -49.5821 0 0
lhand -34.1355 392.7 0
lfingers 7.12502 0 0
lthumb -7.31005 -297.455 0
rclavicle 9.02613e-15 -1.15107e-14 0
rhumerus -56.5396 19.8639 -97.0826
rradius 107.695 0 0
rwrist -85.9788 0 0
rhand -15.0957 -393.364 0
rfingers 7.12502 0 0
rthumb 11.0717 296.96 0
2143
root -2.52682 15.2612 -0.634723 903.839 8.11768 185.924
lfemur -55.0185 17.4846 -25.44
ltibia 46.8122 0 0
lfoot 5.97557 20.311 0
ltoes 5.64322 0 0
rfemur 1.56572 -1.93686 25.2633
rtibia 57.8317 0 0
rfoot -12.347 8.33086 0
rtoes -27.8717 0 0
lowerback 9.77414 0.890851 -0.0531277
upperback -1.75054 1.44597 3.02868
thorax -7.33808 0.832705 3.03969
lowerneck -5.65821 -0.390802 -4.76443
upperneck 6.34912 -0.294574 2.92877
head 3.0766 -0.14039 1.79002
lclavicle 6.1283e-15 -1.05203e-14 0
lhumerus 51.3124 -3.99484 96.7257
lradius 18.1969 0 0
lwrist -47.4334 0 0
lhand -33.6025 388.115 0
lfingers 7.12502 0 0
lthumb -6.79556 -302.024 0
rclavicle 6.1283e-15 -1.05203e-14 0
rhumerus -56.1501 19.6528 -95.9989
rradius 108.154 0 0
rwrist -83.3201 0 0
rhand -14.9383 -393.355 0
rfingers 7.12502 0 0
rthumb 11.2233 296.98 0
2144
root -2.52404 15.2651 -0.884735 903.191 7.34069 184.457
lfemur -53.6712 16.3164 -26.3953
ltibia 48.9516 0 0
lfoot 3.80692 20.9414 0
ltoes 3.94267 0 0
rfemur -1.48551 -1.74543 23.4957
rtibia 64.3188 0 0
rfoot -7.94013 8.5468 0
rtoes -26.1238 0 0
lowerback 10.5625 0.647642 -1.39285
upperback -1.44337 0.902011 2.72808
thorax -7.43956 0.603968 3.56797
lowerneck -5.65504 -0.204353 -4.56301
upperneck 5.9642 -0.0495998 2.69216
head 2.93048 -0.0221716 1.68049
lclavicle 2.00907e-15 -9.31155e-15 0
lhumerus 51.1195 -3.59139 96.1897
lradius 18.4146 0 0
lwrist -44.959 0 0
lhand -32.9598 387.016 0
lfingers 7.12502 0 0
lthumb -6.17507 -303.104 0
rclavicle 2.00907e-15 -9.31155e-15 0
rhumerus -56.5316 19.1022 -94.9658
rradius 108.648 0 0
rwrist -80.135 0 0
rhand -14.8836 -393.457 0
rfingers 7.12502 0 0
rthumb 11.2761 296.88 0
2145
root -2.52126 15.2689 -1.13475 902.346 6.3343 182.577
lfemur -51.8548 14.8915 -27.6812
ltibia 51.4968 0 0
lfoot 1.13785 21.8988 0
ltoes 2.3321 0 0
rfemur -5.17363 -1.55753 21.1536
rtibia 72.5815 0 0
rfoot -2.06216 9.07892 0
rtoes -23.8738 0 0
lowerback 11.5346 0.326482 -3.14583
upperback -1.04212 0.185043 2.34743
thorax -7.53933 0.30342 4.27514
lowerneck -5.67843 0.0467184 -4.32005
upperneck 5.4666 0.283049 2.37744
head 2.74631 0.137773 1.5399
lclavicle -3.55729e-15 -7.8653e-15 0
lhumerus 51.2075 -2.88431 95.7195
lradius 17.9073 0 0
lwrist -42.1604 0 0
lhand -32.1991 390.622 0
lfingers 7.12502 0 0
lthumb -5.44074 -299.475 0
rclavicle -3.55729e-15 -7.8653e-15 0
rhumerus -57.926 18.1227 -94.0464
rradius 109.168 0 0
rwrist -76.3893 0 0
rhand -14.9684 -393.702 0
rfingers 7.12502 0 0
rthumb 11.1946 296.626 0
2146
root -2.51848 15.2728 -1.38476 901.273 5.0669 180.231
lfemur -49.4968 13.1845 -29.3487
ltibia 54.4779 0 0
lfoot -2.08477 23.2444 0
ltoes 0.891145 0 0
rfemur -9.55648 -1.38045 18.152
rtibia 82.8487 0 0
rfoot 5.50906 9.99949 0
rtoes -21.0539 0 0
lowerback 12.7101 -0.0840755 -5.37104
upperback -0.533446 -0.730194 1.87668
thorax -7.63357 -0.0793267 5.18848
lowerneck -5.73517 0.372407 -4.03184
upperneck 4.84086 0.717201 1.97288
head 2.51941 0.345972 1.36411
lclavicle -1.07965e-14 -6.16232e-15 0
lhumerus 51.6534 -1.81078 95.3498
lradius 16.4854 0 0
lwrist -39.0389 0 0
lhand -31.3124 400.153 0
lfingers 7.12502 0 0
lthumb -4.58477 -289.916 0
rclavicle -1.07965e-14 -6.16232e-15 0
rhumerus -60.5752 16.625 -93.3039
rradius 109.703 0 0
rwrist -72.0489 0 0
rhand -15.2296 -394.123 0
rfingers 7.12502 0 0
rthumb 10.9433 296.182 0
